# xmcd
#
# Track frame offsets:
#  150
#  16128
#  32067
#  47126
#  66411
#  84221
#  96416
#  112874
#  129130
#  149941
#
# Disc length: 2315 seconds
#
# Revision: 0
# Processed by: cddbd v1.5.1PL2 Copyright (c) Steve Scherf et al.
# Submitted via: Collectorz.com_Music_Collector 6.9
#
DISCID=8309090a
DTITLE=Deana Carter - The Story Of My Life
DYEAR=2005
DGENRE=Country
TTITLE0=10 - Getting Over You
TTITLE1=01 - The Girl You Left Me For
TTITLE2=02 - One Day At A Time
TTITLE3=03 - Ordinary
TTITLE4=04 - In A Heartbeat
TTITLE5=05 - Katie
TTITLE6=06 - Atlanta And Birmingham
TTITLE7=07 - She's Good For You
TTITLE8=08 - Not Another Love Song
TTITLE9=09 - Sunny Day
EXTD=
EXTT0=
EXTT1=
EXTT2=
EXTT3=
EXTT4=
EXTT5=
EXTT6=
EXTT7=
EXTT8=
EXTT9=
PLAYORDER=
